<?xml version="1.0" encoding="utf-8"?>
<!-- Generator: Adobe Illustrator 27.5.0, SVG Export Plug-In . SVG Version: 6.00 Build 0)  -->
<svg version="1.1" xmlns="http://www.w3.org/2000/svg" xmlns:xlink="http://www.w3.org/1999/xlink" x="0px" y="0px"
	 viewBox="0 0 500 500" style="enable-background:new 0 0 500 500;" xml:space="preserve">
<g id="Background_complete">
	<g>
		<g>
			<g>
				<g>
					<g>
						<path style="fill:#E0E0E0;" d="M443.92,316.07H263.174c-3.232,0-5.862-2.63-5.862-5.862V46.935
							c0-3.232,2.63-5.862,5.862-5.862H443.92c3.232,0,5.862,2.629,5.862,5.862v263.273
							C449.783,313.44,447.153,316.07,443.92,316.07z M263.174,41.323c-3.095,0-5.612,2.518-5.612,5.612v263.273
							c0,3.095,2.518,5.612,5.612,5.612H443.92c3.095,0,5.612-2.518,5.612-5.612V46.935c0-3.094-2.518-5.612-5.612-5.612H263.174z"
							/>
					</g>
				</g>
				<g>
					<g>
						<path style="fill:#E0E0E0;" d="M235.493,316.07H54.746c-3.232,0-5.862-2.63-5.862-5.862V46.935
							c0-3.232,2.629-5.862,5.862-5.862h180.747c3.232,0,5.862,2.629,5.862,5.862v263.273
							C241.355,313.44,238.725,316.07,235.493,316.07z M54.746,41.323c-3.094,0-5.612,2.518-5.612,5.612v263.273
							c0,3.095,2.518,5.612,5.612,5.612h180.747c3.095,0,5.612-2.518,5.612-5.612V46.935c0-3.094-2.518-5.612-5.612-5.612H54.746z"
							/>
					</g>
				</g>
			</g>
			<g>
				<g>
					<rect x="0" y="377.14" style="fill:#E0E0E0;" width="500" height="0.25"/>
				</g>
			</g>
		</g>
		<rect x="51.672" y="391.404" style="fill:#E0E0E0;" width="16.06" height="0.25"/>
		<rect x="170.352" y="388.694" style="fill:#E0E0E0;" width="53.53" height="0.25"/>
		<rect x="68.732" y="400.694" style="fill:#E0E0E0;" width="36.25" height="0.25"/>
		<rect x="378.352" y="388.564" style="fill:#E0E0E0;" width="43.19" height="0.25"/>
		<rect x="430.452" y="388.564" style="fill:#E0E0E0;" width="6.33" height="0.25"/>
		<rect x="316.212" y="394.794" style="fill:#E0E0E0;" width="53.89" height="0.25"/>
	</g>
	<g>
		<path style="fill:#EBEBEB;" d="M69.884,363.905c0.52-1.476,1.651-2.183,2.965-2.535c1.025-0.274,1.91-0.016,2.98,0.31
			c0.496,0.151,1.124,0.503,1.714,0.939c-0.126-0.723-0.16-1.442-0.073-1.953c0.188-1.103,0.352-2.01,1.056-2.804
			c0.902-1.018,2.04-1.713,3.593-1.518c1.458,0.183,2.512,1.532,2.976,2.927c0.464,1.395,0.426,3.128,0.199,4.513
			c-0.477,2.905-1.051,5.236-2.399,7.495c-3.332,0.112-4.965-0.333-7.776-1.206c-1.341-0.416-2.907-1.158-3.947-2.197
			C70.131,366.837,69.396,365.292,69.884,363.905z"/>
	</g>
	<g>
		
			<rect x="366.077" y="230.299" transform="matrix(0.9543 -0.2989 0.2989 0.9543 -59.41 135.5229)" style="fill:#EBEBEB;" width="94.365" height="63.294"/>
		<path style="fill:none;stroke:#FAFAFA;stroke-linecap:round;stroke-linejoin:round;stroke-miterlimit:10;" d="M359.621,246.295
			c0,0,54.448,24.165,56.139,23.636c1.691-0.53,32.629-51.575,32.629-51.575"/>
		<line style="fill:none;stroke:#FAFAFA;stroke-miterlimit:10;" x1="377.695" y1="306.251" x2="397.674" y2="262.838"/>
		<line style="fill:none;stroke:#FAFAFA;stroke-miterlimit:10;" x1="467.745" y1="278.041" x2="426.329" y2="254.72"/>
	</g>
	<g>
		
			<rect x="30.782" y="248.734" transform="matrix(0.8965 0.443 -0.443 0.8965 127.7199 -1.2907)" style="fill:#EBEBEB;" width="71.683" height="48.08"/>
		<path style="fill:none;stroke:#FAFAFA;stroke-linecap:round;stroke-linejoin:round;stroke-miterlimit:10;" d="M45.372,236.034
			c0,0,17.229,41.843,18.436,42.439c1.207,0.596,44.984-11.21,44.984-11.21"/>
		<line style="fill:none;stroke:#FAFAFA;stroke-miterlimit:10;" x1="23.841" y1="278.451" x2="57.594" y2="265.087"/>
		<line style="fill:none;stroke:#FAFAFA;stroke-miterlimit:10;" x1="88.108" y1="310.203" x2="77.594" y2="275.663"/>
	</g>
	<g>
		
			<rect x="277.827" y="86.131" transform="matrix(0.9958 0.0919 -0.0919 0.9958 11.6556 -28.6315)" style="fill:#EBEBEB;" width="77.995" height="52.313"/>
		<path style="fill:none;stroke:#FAFAFA;stroke-linecap:round;stroke-linejoin:round;stroke-miterlimit:10;" d="M280.901,83.267
			c0,0,33.83,35.772,35.288,35.907c1.458,0.135,41.312-28.943,41.312-28.943"/>
		<line style="fill:none;stroke:#FAFAFA;stroke-miterlimit:10;" x1="275.589" y1="134.751" x2="304.654" y2="108.004"/>
		<line style="fill:none;stroke:#FAFAFA;stroke-miterlimit:10;" x1="353.254" y1="141.917" x2="329.094" y2="110.939"/>
	</g>
	<g>
		<path style="fill:#EBEBEB;" d="M397.064,150.515c2.201-0.531,3.949,0.285,5.409,1.602c1.139,1.027,1.523,2.304,1.97,3.859
			c0.207,0.721,0.274,1.76,0.21,2.819c0.778-0.721,1.624-1.329,2.312-1.626c1.486-0.641,2.716-1.154,4.233-0.926
			c1.945,0.293,3.685,1.127,4.671,3.165c0.926,1.914,0.119,4.254-1.209,5.915c-1.328,1.661-3.459,2.979-5.319,3.794
			c-3.9,1.709-7.18,2.846-10.982,2.988c-2.758-3.955-3.504-6.285-4.658-10.384c-0.55-1.955-0.883-4.438-0.442-6.518
			C393.701,153.122,394.997,151.013,397.064,150.515z"/>
	</g>
	<g>
		<path style="fill:#EBEBEB;" d="M80.398,90.268c0.52-1.476,1.651-2.183,2.965-2.535c1.025-0.274,1.91-0.016,2.98,0.309
			c0.496,0.151,1.124,0.503,1.714,0.939c-0.126-0.723-0.16-1.442-0.073-1.953c0.187-1.103,0.352-2.01,1.056-2.804
			c0.902-1.018,2.04-1.713,3.593-1.518c1.459,0.183,2.512,1.532,2.976,2.927c0.464,1.396,0.426,3.127,0.199,4.513
			c-0.477,2.905-1.051,5.236-2.399,7.494c-3.332,0.112-4.965-0.333-7.776-1.206c-1.341-0.416-2.907-1.158-3.947-2.196
			C80.645,93.2,79.91,91.654,80.398,90.268z"/>
	</g>
	<g>
		<path style="fill:#EBEBEB;" d="M413.883,83.96c0.52-1.476,1.651-2.183,2.965-2.535c1.025-0.274,1.91-0.016,2.98,0.309
			c0.496,0.151,1.124,0.503,1.714,0.939c-0.126-0.723-0.16-1.442-0.073-1.953c0.188-1.103,0.352-2.01,1.056-2.804
			c0.902-1.018,2.04-1.713,3.593-1.518c1.458,0.183,2.512,1.532,2.976,2.927c0.464,1.395,0.427,3.127,0.199,4.513
			c-0.477,2.905-1.051,5.236-2.399,7.494c-3.332,0.112-4.965-0.333-7.776-1.206c-1.341-0.416-2.907-1.158-3.947-2.197
			C414.13,86.892,413.395,85.346,413.883,83.96z"/>
	</g>
</g>
<g id="Background_simple" style="display:none;">
	<g style="display:inline;">
		<path style="fill:#407BFF;" d="M131.083,201.915c-4.422-17.931-4.444-37.345,0.821-57.208
			c6.205-23.411,20.229-51.177,51.886-60.896c58.444-17.941,81.149,24.965,113.064-1.845c36.151-30.369,87.613-47.897,123.052-10.56
			c67.312,70.916-30.935,246.548-126.95,259.091C233.182,338.305,154.561,297.124,131.083,201.915z"/>
		<path style="opacity:0.9;fill:#FFFFFF;" d="M131.083,201.915c-4.422-17.931-4.444-37.345,0.821-57.208
			c6.205-23.411,20.229-51.177,51.886-60.896c58.444-17.941,81.149,24.965,113.064-1.845c36.151-30.369,87.613-47.897,123.052-10.56
			c67.312,70.916-30.935,246.548-126.95,259.091C233.182,338.305,154.561,297.124,131.083,201.915z"/>
	</g>
</g>
<g id="Shadow">
	<g>
		<g>
			<path style="fill:#F5F5F5;" d="M456.286,454.526c0,3.387-93.517,6.132-208.875,6.132s-208.875-2.745-208.875-6.132
				c0-3.387,93.516-6.132,208.875-6.132S456.286,451.139,456.286,454.526z"/>
		</g>
	</g>
</g>
<g id="Card">
	<g>
		<g id="freepik--Letter--inject-2">
			<path style="fill:#407BFF;" d="M375.929,400.859L160.47,380.98c-2.696-0.249-4.68-2.636-4.431-5.332l13.629-147.719
				L280.1,159.353c4.05-2.525,9.274-2.113,12.878,1.016l101.911,88.34l-13.632,147.756
				C380.99,399.145,378.611,401.107,375.929,400.859z"/>
			<path style="opacity:0.2;enable-background:new    ;" d="M375.929,400.859L160.47,380.98c-2.696-0.249-4.68-2.636-4.431-5.332
				l13.629-147.719L280.1,159.353c4.05-2.525,9.274-2.113,12.878,1.016l101.911,88.34l-13.632,147.756
				C380.99,399.145,378.611,401.107,375.929,400.859z"/>
			<path style="fill:#407BFF;" d="M394.889,248.709l-13.633,147.768c-0.251,2.474-2.314,4.367-4.8,4.406l-0.488-0.045
				l-215.495-19.882l-0.5-0.046c-2.426-0.504-4.095-2.739-3.889-5.208l13.633-147.768l89.82,75.065l4.91,4.145l7.883,6.598l9.433-5
				l5.878-3.15L394.889,248.709z"/>
			<path style="opacity:0.2;enable-background:new    ;" d="M381.434,394.549l-0.134,1.452c-0.153,2.613-2.231,4.702-4.843,4.87
				l-0.488-0.045l-215.495-19.882l-0.5-0.046c-2.527-0.653-4.174-3.083-3.846-5.672l0.135-1.464l103.275-70.775l4.91,4.145
				l7.883,6.598l9.433-5l5.878-3.15L381.434,394.549z"/>
			<g>
				<polygon style="fill:#407BFF;" points="374.949,259.285 287.641,305.592 260.226,303.568 188.025,243.234 195.356,163.773 
					382.171,181.009 				"/>
				<polygon style="opacity:0.7;fill:#FFFFFF;enable-background:new    ;" points="374.949,259.285 287.641,305.592 
					260.226,303.568 188.025,243.234 195.356,163.773 382.171,181.009 				"/>
			</g>
			<path style="opacity:0.2;enable-background:new    ;" d="M188.646,236.505l73.374,62.446c0,0,6.867-3.809,12.952-2.359
				c6.085,1.45,12.008,4.662,12.008,4.662l88.48-47.513l-0.512,5.545l-87.308,46.307l-27.415-2.024l-72.201-60.333L188.646,236.505z
				"/>
			<path style="fill:#407BFF;" d="M381.421,394.954l-0.127,1.375c-0.257,2.787-2.651,4.844-5.347,4.596l-215.459-19.879
				c-2.696-0.249-4.673-2.71-4.416-5.496l0.127-1.375l108.482-69.849l2.198-1.413c4.06-2.618,9.281-2.209,12.878,1.01l2.277,2.004
				L381.421,394.954z"/>
			<polyline style="fill:none;stroke:#407BFF;stroke-linecap:round;stroke-linejoin:round;stroke-miterlimit:10;" points="
				195.029,250.225 202.135,173.211 372.421,188.922 365.496,263.977 			"/>
		</g>
		<g>
			<path style="fill:#407BFF;" d="M226.304,241.518c-1.756-0.106-2.957-0.541-3.602-1.307c-0.646-0.764-0.933-1.715-0.865-2.851
				c0.06-0.999,0.33-2.184,0.811-3.556c0.479-1.37,0.965-2.681,1.455-3.93c0.887-2.125,1.842-4.331,2.861-6.62
				c1.02-2.288,2.055-4.56,3.107-6.813c1.051-2.252,2.088-4.419,3.113-6.501c1.024-2.081,1.985-3.976,2.883-5.685
				c-2.345-0.106-4.354-0.166-6.029-0.181c-1.676-0.015-3.198,0.007-4.566,0.062c-1.369,0.056-2.82,0.176-4.352,0.36
				c0.218-1.335,0.927-2.337,2.126-3.008c1.198-0.671,2.788-1.094,4.768-1.269c1.981-0.174,4.211-0.187,6.691-0.038
				c1.722,0.104,3.285,0.25,4.692,0.438c1.405,0.188,2.751,0.382,4.035,0.58c1.284,0.199,2.545,0.37,3.78,0.513
				c1.003,0.579,1.663,0.947,1.982,1.104c0.319,0.158,0.375,0.23,0.169,0.218c-0.83,0.571-1.848,0.969-3.053,1.189
				c-1.206,0.222-2.448,0.328-3.726,0.32c-1.279-0.007-2.504-0.047-3.674-0.118c-1.664,3.53-3.323,7.405-4.978,11.626
				c-1.654,4.222-3.258,8.602-4.809,13.139c-0.552,1.695-1.029,3.162-1.432,4.399c-0.403,1.237-0.722,2.367-0.956,3.39
				c-0.234,1.023-0.384,2.067-0.448,3.136c-0.01,0.172-0.014,0.37-0.01,0.596C226.279,240.937,226.289,241.206,226.304,241.518z"/>
			<path style="fill:#407BFF;" d="M242.317,239.942c-0.724-0.044-1.224-0.652-1.498-1.827c-0.275-1.175-0.368-2.502-0.279-3.983
				c0.098-1.618,0.489-3.53,1.175-5.736c0.685-2.205,1.551-4.529,2.597-6.972c1.046-2.443,2.2-4.827,3.464-7.154
				c1.263-2.326,2.548-4.426,3.853-6.301c1.306-1.874,2.527-3.364,3.666-4.472c1.137-1.105,2.103-1.635,2.896-1.588
				c0.688,0.042,1.182,0.46,1.479,1.256c0.297,0.795,0.423,1.589,0.375,2.381c-0.058,0.964-0.344,2.114-0.856,3.449
				c-0.512,1.335-1.194,2.754-2.044,4.257c-0.852,1.505-1.831,2.983-2.938,4.438c-1.108,1.455-2.285,2.767-3.53,3.936
				c-1.246,1.169-2.529,2.095-3.848,2.775c-0.479,1.077-0.89,2.15-1.231,3.219c-0.341,1.067-0.602,2.098-0.782,3.089
				c-0.181,0.992-0.298,1.936-0.352,2.831c-0.014,0.241-0.02,0.474-0.016,0.698c0.004,0.226,0.018,0.426,0.042,0.6
				c0.278-0.605,0.646-1.404,1.104-2.396c0.457-0.992,1.004-2.04,1.641-3.143c0.637-1.102,1.373-2.146,2.21-3.133
				c0.837-0.986,1.774-1.768,2.811-2.345c1.037-0.577,2.158-0.83,3.364-0.757c1.102,0.065,1.956,0.369,2.564,0.905
				c0.606,0.538,1.017,1.194,1.229,1.967c0.213,0.773,0.295,1.557,0.248,2.349c-0.064,1.068-0.307,2.081-0.728,3.041
				c-0.421,0.96-0.838,1.868-1.253,2.725c-0.414,0.857-0.646,1.681-0.693,2.473c-0.037,0.619,0.074,1.076,0.333,1.368
				c0.259,0.293,0.595,0.45,1.009,0.476c0.757,0.045,1.667-0.28,2.728-0.977c1.061-0.696,2.121-1.644,3.179-2.842
				c1.057-1.198,1.993-2.532,2.808-4.005l0.728,0.821c-0.861,1.678-1.868,3.189-3.02,4.537c-1.153,1.348-2.384,2.405-3.691,3.173
				c-1.309,0.769-2.669,1.11-4.081,1.025c-1.274-0.077-2.219-0.471-2.832-1.182c-0.613-0.711-0.891-1.565-0.83-2.565
				c0.043-0.723,0.221-1.516,0.531-2.378c0.312-0.863,0.615-1.743,0.912-2.642c0.295-0.897,0.466-1.726,0.512-2.483
				c0.05-0.826-0.096-1.423-0.437-1.789c-0.341-0.366-0.77-0.566-1.286-0.597c-0.861-0.052-1.657,0.246-2.388,0.894
				c-0.73,0.647-1.411,1.488-2.043,2.52c-0.633,1.034-1.226,2.13-1.78,3.29c-0.554,1.158-1.096,2.267-1.626,3.323
				c-0.53,1.057-1.074,1.906-1.631,2.546C243.525,239.677,242.937,239.979,242.317,239.942z M247.986,221.566
				c0.942-0.737,1.878-1.641,2.807-2.708c0.927-1.067,1.799-2.199,2.615-3.395c0.815-1.195,1.533-2.361,2.155-3.5
				c0.621-1.137,1.123-2.161,1.507-3.071c0.383-0.91,0.607-1.623,0.674-2.137c0.004-0.069-0.002-0.121-0.017-0.157
				c-0.017-0.035-0.041-0.054-0.075-0.056c-0.206-0.013-0.681,0.399-1.422,1.236c-0.742,0.836-1.614,1.969-2.616,3.394
				c-1.001,1.426-2.006,3.042-3.013,4.849C249.593,217.826,248.722,219.675,247.986,221.566z"/>
			<path style="fill:#407BFF;" d="M267.86,241.947c-1.104-0.066-2.037-0.495-2.801-1.283c-0.764-0.79-1.103-1.925-1.014-3.406
				c0.075-1.239,0.432-2.548,1.066-3.928c0.636-1.379,1.477-2.728,2.525-4.047c1.047-1.319,2.225-2.511,3.533-3.572
				c1.309-1.063,2.681-1.896,4.117-2.5c1.436-0.605,2.843-0.866,4.221-0.783c1.446,0.088,2.638,0.53,3.575,1.33
				c0.936,0.8,1.369,1.803,1.296,3.008c-0.056,0.93-0.388,1.566-0.996,1.91c-0.608,0.344-1.34,0.421-2.191,0.231
				c0.085-0.271,0.164-0.568,0.235-0.893c0.071-0.324,0.116-0.642,0.135-0.951c0.044-0.724-0.073-1.369-0.35-1.939
				c-0.277-0.569-0.863-0.882-1.759-0.936c-0.965-0.059-1.966,0.211-3.004,0.804c-1.038,0.595-2.054,1.398-3.048,2.409
				c-0.994,1.012-1.892,2.134-2.691,3.363c-0.801,1.231-1.444,2.454-1.933,3.669c-0.486,1.215-0.76,2.305-0.818,3.269
				c-0.07,1.171,0.324,1.782,1.186,1.834c0.792,0.048,1.685-0.278,2.678-0.979c0.992-0.699,2.016-1.605,3.067-2.718
				c1.052-1.112,2.061-2.252,3.031-3.422c0.969-1.167,1.809-2.197,2.52-3.088c0.147-0.164,0.273-0.243,0.377-0.237
				c0.17,0.046,0.44,0.14,0.813,0.283c0.371,0.144,0.706,0.327,1.004,0.553c0.297,0.226,0.435,0.511,0.415,0.855
				c-0.022,0.345-0.202,0.774-0.545,1.289c-0.342,0.517-0.723,1.09-1.14,1.72c-0.419,0.633-0.803,1.266-1.152,1.901
				c-0.349,0.636-0.542,1.264-0.579,1.884c-0.027,0.448,0.075,0.894,0.308,1.34c0.232,0.447,0.641,0.687,1.227,0.723
				c0.86,0.052,2.078-0.505,3.651-1.673c1.574-1.166,3.222-3.132,4.943-5.898l0.777,0.877c-0.904,1.811-1.977,3.39-3.214,4.731
				c-1.24,1.344-2.521,2.382-3.844,3.113c-1.322,0.731-2.621,1.061-3.896,0.983c-1.377-0.083-2.368-0.565-2.972-1.449
				c-0.603-0.883-0.91-1.825-0.918-2.829c0.006-0.104,0.021-0.214,0.046-0.334c0.025-0.119,0.04-0.232,0.046-0.334
				c-1.519,1.671-2.893,2.962-4.122,3.873C270.438,241.61,269.168,242.026,267.86,241.947z"/>
			<path style="fill:#407BFF;" d="M305.139,242.792c-1.274-0.077-2.227-0.464-2.859-1.157c-0.632-0.694-0.918-1.541-0.858-2.541
				c0.044-0.723,0.21-1.465,0.497-2.225c0.287-0.761,0.577-1.538,0.866-2.333c0.289-0.794,0.458-1.57,0.504-2.329
				c0.05-0.826-0.105-1.406-0.466-1.738c-0.361-0.333-0.799-0.515-1.315-0.546c-1.033-0.063-2.118,0.305-3.254,1.1
				c-1.138,0.796-2.261,1.809-3.372,3.037c-1.111,1.23-2.157,2.523-3.138,3.881c-0.98,1.359-1.831,2.569-2.552,3.632
				c-0.62-0.037-1.199-0.176-1.737-0.416c-0.538-0.239-0.981-0.629-1.33-1.169c0.046-0.17,0.274-0.683,0.689-1.54
				c0.415-0.856,0.885-1.898,1.407-3.129c0.523-1.23,1.007-2.506,1.449-3.828c0.442-1.321,0.698-2.55,0.767-3.686
				c0.255-0.226,0.632-0.462,1.132-0.709c0.498-0.247,1.006-0.354,1.522-0.323c1.103,0.066,1.623,0.599,1.564,1.598
				c-0.027,0.447-0.174,1.156-0.439,2.125c-0.266,0.97-0.607,2.029-1.022,3.179c0.973-1.22,2.045-2.391,3.22-3.513
				c1.173-1.122,2.385-2.025,3.637-2.711c1.251-0.684,2.496-0.99,3.736-0.915c1.411,0.085,2.424,0.638,3.037,1.66
				c0.611,1.022,0.882,2.137,0.81,3.342c-0.063,1.032-0.294,1.996-0.692,2.887c-0.4,0.893-0.787,1.733-1.163,2.523
				c-0.376,0.789-0.588,1.58-0.636,2.372c-0.035,0.586,0.068,1.015,0.311,1.289c0.242,0.273,0.553,0.422,0.933,0.445
				c0.826,0.05,1.703-0.304,2.63-1.061c0.928-0.756,1.832-1.722,2.715-2.895c0.883-1.174,1.672-2.362,2.366-3.565l0.735,0.718
				c-0.825,1.645-1.728,3.129-2.705,4.452c-0.98,1.324-2.044,2.357-3.194,3.1C307.78,242.544,306.517,242.874,305.139,242.792z"/>
			<path style="fill:#407BFF;" d="M328.278,245.119c-1.033-0.063-1.909-0.452-2.626-1.17c-0.717-0.717-1.268-1.605-1.654-2.666
				c-0.386-1.06-0.658-2.13-0.817-3.211c-0.16-1.081-0.216-2.019-0.168-2.811c0.451-0.042,1.046-0.145,1.781-0.308
				c0.735-0.163,1.493-0.403,2.273-0.719c0.778-0.316,1.444-0.742,1.995-1.279c0.551-0.537,0.85-1.202,0.897-1.994
				c0.039-0.654-0.153-1.193-0.577-1.616c-0.424-0.422-0.98-0.655-1.669-0.697c-0.999-0.06-1.966,0.219-2.901,0.837
				c-0.936,0.617-1.808,1.446-2.612,2.487c-0.807,1.04-1.54,2.172-2.2,3.393c-0.662,1.222-1.251,2.396-1.769,3.523
				c-0.517,1.127-0.956,2.094-1.315,2.901c-0.363,0.877-0.735,1.46-1.116,1.748c-0.38,0.288-0.863,0.414-1.448,0.379
				c-0.345-0.021-0.664-0.169-0.958-0.446c-0.295-0.277-0.501-0.73-0.618-1.359c-0.118-0.629-0.146-1.461-0.083-2.494
				c0.12-1.997,0.546-4.21,1.28-6.638c0.734-2.426,1.67-4.902,2.807-7.426c1.137-2.524,2.362-4.939,3.677-7.244
				c1.313-2.307,2.623-4.37,3.924-6.193c1.303-1.822,2.505-3.262,3.605-4.319c1.1-1.057,1.978-1.566,2.632-1.526
				c0.551,0.033,0.986,0.405,1.307,1.115c0.32,0.711,0.449,1.582,0.388,2.615c-0.071,1.172-0.408,2.465-1.012,3.88
				c-0.605,1.415-1.424,2.826-2.458,4.233c-1.036,1.407-2.238,2.726-3.609,3.956c-1.37,1.232-2.876,2.264-4.516,3.099
				c-1.146,2.386-2.057,4.732-2.73,7.042c-0.676,2.311-1.116,4.323-1.323,6.039c0.67-1.377,1.447-2.809,2.333-4.293
				c0.884-1.484,1.858-2.887,2.923-4.205c1.065-1.318,2.191-2.365,3.378-3.141c1.188-0.775,2.418-1.125,3.692-1.048
				c1.343,0.08,2.478,0.615,3.403,1.604c0.925,0.989,1.346,2.189,1.261,3.602c-0.063,1.033-0.401,1.92-1.017,2.661
				c-0.614,0.74-1.342,1.328-2.18,1.761c-0.839,0.435-1.67,0.747-2.493,0.938c-0.824,0.192-1.513,0.273-2.063,0.239
				c0.044,0.417,0.131,0.975,0.262,1.675c0.131,0.699,0.338,1.412,0.623,2.137c0.285,0.726,0.653,1.345,1.107,1.855
				c0.452,0.512,1.006,0.787,1.661,0.826c0.93,0.056,1.865-0.276,2.808-0.997c0.942-0.722,1.883-1.701,2.821-2.941
				c0.939-1.239,1.801-2.631,2.585-4.174l0.573,0.813c-0.653,1.654-1.526,3.235-2.619,4.742c-1.094,1.507-2.288,2.706-3.586,3.595
				C330.838,244.788,329.552,245.195,328.278,245.119z M322.189,222.249c1.23-0.928,2.429-2.031,3.595-3.309
				c1.166-1.278,2.145-2.61,2.938-3.998c0.791-1.386,1.238-2.646,1.342-3.781c0.007-0.104-0.006-0.19-0.036-0.261
				c-0.349,0.048-0.943,0.6-1.784,1.655c-0.842,1.056-1.798,2.424-2.866,4.104C324.308,218.342,323.246,220.206,322.189,222.249z"/>
		</g>
		<g>
			<path style="fill:#407BFF;" d="M250.515,279.694c-0.851-0.079-1.604-0.405-2.255-0.98c-0.65-0.576-0.927-1.393-0.83-2.448
				c0.101-1.09,0.498-2.041,1.191-2.853c0.692-0.813,1.566-1.53,2.621-2.155c1.053-0.624,2.196-1.189,3.428-1.693
				c1.232-0.505,2.454-0.993,3.665-1.466c0.507-1.018,1.067-2.272,1.686-3.761c0.619-1.489,1.184-2.965,1.698-4.43
				c-1.201,1.47-2.461,2.736-3.777,3.8c-1.318,1.064-2.71,1.527-4.174,1.393c-0.613-0.057-1.24-0.243-1.882-0.56
				c-0.641-0.317-1.153-0.81-1.538-1.482c-0.385-0.67-0.53-1.518-0.435-2.539c0.085-0.92,0.346-1.995,0.786-3.226
				c0.44-1.23,0.961-2.419,1.565-3.566c0.604-1.146,1.207-2.096,1.81-2.848c0.602-0.751,1.107-1.107,1.516-1.07
				c0.171,0.016,0.436,0.109,0.8,0.279c0.361,0.172,0.711,0.393,1.047,0.664c0.334,0.271,0.523,0.546,0.566,0.825
				c-0.343,0.38-0.739,0.945-1.187,1.694c-0.447,0.75-0.885,1.585-1.313,2.507c-0.429,0.923-0.797,1.834-1.102,2.732
				c-0.307,0.899-0.49,1.674-0.551,2.32c-0.05,0.546,0.018,1.016,0.206,1.41c0.187,0.395,0.587,0.621,1.2,0.678
				c0.715,0.066,1.501-0.171,2.359-0.71c0.855-0.539,1.722-1.258,2.594-2.157c0.874-0.897,1.664-1.83,2.372-2.796
				c0.131-0.297,0.25-0.672,0.361-1.126c0.11-0.454,0.257-0.93,0.441-1.428c0.185-0.532,0.516-1.043,0.991-1.532
				c0.475-0.488,1.103-0.697,1.887-0.625c0.238,0.022,0.467,0.061,0.685,0.115c0.218,0.055,0.478,0.131,0.778,0.227
				c-0.048,0.51-0.318,1.491-0.812,2.939c-0.494,1.449-1.121,3.126-1.882,5.032c-0.761,1.905-1.605,3.811-2.537,5.718
				c1.552-0.44,3.158-1.28,4.819-2.52c1.659-1.237,3.078-3.021,4.256-5.353l0.761,0.689c-0.668,1.656-1.579,3.059-2.733,4.205
				c-1.153,1.148-2.418,2.097-3.792,2.846c-1.376,0.749-2.736,1.354-4.084,1.813c-1.123,2.129-2.302,4.091-3.532,5.884
				c-1.231,1.794-2.485,3.198-3.764,4.214C253.147,279.37,251.845,279.816,250.515,279.694z M250.271,277.868
				c0.612,0.057,1.571-0.542,2.872-1.797c1.3-1.254,2.699-3.289,4.196-6.106c-1.249,0.504-2.47,1.069-3.661,1.698
				c-1.191,0.628-2.2,1.317-3.024,2.066c-0.826,0.748-1.281,1.599-1.37,2.553c-0.028,0.308,0.027,0.638,0.167,0.995
				C249.588,277.633,249.862,277.83,250.271,277.868z"/>
			<path style="fill:#407BFF;" d="M272.994,268.987c-1.5-0.139-2.493-0.72-2.984-1.743c-0.488-1.025-0.677-2.15-0.564-3.377
				c0.101-1.09,0.373-2.181,0.817-3.274c0.443-1.093,1-2.105,1.672-3.04c0.67-0.935,1.391-1.676,2.163-2.223
				c0.772-0.548,1.533-0.787,2.283-0.718c0.204,0.019,0.447,0.085,0.729,0.196c0.28,0.112,0.482,0.243,0.607,0.391
				c-0.413,0.375-0.867,0.917-1.361,1.627c-0.496,0.71-0.961,1.483-1.399,2.319c-0.438,0.835-0.808,1.678-1.108,2.525
				c-0.304,0.848-0.486,1.63-0.553,2.346c-0.072,0.784,0.008,1.409,0.24,1.877c0.23,0.469,0.653,0.73,1.268,0.787
				c0.681,0.063,1.522-0.229,2.527-0.874c1.004-0.646,1.982-1.458,2.932-2.437c-0.973-1.017-1.65-2.152-2.031-3.407
				c-0.383-1.255-0.503-2.649-0.361-4.183c0.079-0.851,0.349-1.737,0.811-2.656c0.463-0.919,1.115-1.666,1.959-2.241
				c0.843-0.574,1.895-0.805,3.156-0.689c1.431,0.132,2.39,0.625,2.878,1.476c0.489,0.854,0.682,1.841,0.577,2.965
				c-0.116,1.261-0.58,2.652-1.391,4.176c-0.81,1.523-1.741,2.956-2.793,4.303c0.451,0.317,0.966,0.501,1.546,0.555
				c0.511,0.048,1.136-0.016,1.873-0.188c0.738-0.172,1.465-0.509,2.181-1.01c0.717-0.501,1.32-1.192,1.816-2.074l0.76,0.688
				c-0.869,1.604-1.962,2.73-3.274,3.382c-1.315,0.652-2.552,0.925-3.709,0.817c-0.444-0.04-0.883-0.123-1.317-0.25
				c-0.436-0.125-0.832-0.291-1.19-0.496c-1.291,1.324-2.708,2.43-4.248,3.318C275.961,268.746,274.458,269.122,272.994,268.987z
				 M281.579,261.946c0.962-1.114,1.788-2.335,2.477-3.663c0.689-1.327,1.088-2.57,1.195-3.729c0.078-0.852,0.008-1.485-0.212-1.9
				c-0.22-0.415-0.551-0.644-0.993-0.685c-0.682-0.063-1.406,0.343-2.173,1.217c-0.768,0.874-1.219,2.026-1.35,3.457
				c-0.075,0.818-0.031,1.741,0.131,2.77C280.816,260.441,281.126,261.286,281.579,261.946z"/>
			<path style="fill:#407BFF;" d="M292.369,270.672c-1.159-0.107-2.055-0.723-2.689-1.846c-0.635-1.123-0.888-2.383-0.759-3.78
				c0.088-0.954,0.353-2.063,0.796-3.328c0.443-1.265,0.96-2.496,1.553-3.696c0.591-1.199,1.189-2.184,1.793-2.952
				c0.602-0.769,1.108-1.135,1.519-1.097c0.237,0.021,0.576,0.174,1.014,0.454c0.439,0.281,0.811,0.608,1.121,0.979
				c-0.426,0.511-0.956,1.321-1.59,2.43c-0.636,1.11-1.217,2.302-1.747,3.576c-0.529,1.273-0.846,2.456-0.946,3.545
				c-0.016,0.171-0.022,0.522-0.02,1.055c0.002,0.534,0.094,1.032,0.274,1.495c0.18,0.463,0.544,0.72,1.088,0.77
				c0.58,0.054,1.238-0.203,1.979-0.771c0.739-0.567,1.505-1.33,2.298-2.287c0.793-0.958,1.568-2.003,2.325-3.136
				c0.757-1.133,1.459-2.218,2.104-3.259c0.646-1.039,1.173-1.919,1.583-2.637c0.27,0.06,0.629,0.17,1.078,0.331
				c0.448,0.162,0.842,0.361,1.182,0.599c0.339,0.237,0.49,0.544,0.456,0.918c-0.01,0.103-0.211,0.514-0.604,1.233
				c-0.394,0.72-0.86,1.587-1.4,2.602c-0.54,1.017-1.022,2.054-1.446,3.113c-0.424,1.061-0.674,1.999-0.749,2.817
				c-0.048,0.511,0.015,0.964,0.184,1.356c0.17,0.395,0.545,0.617,1.124,0.671c0.715,0.066,1.605-0.179,2.67-0.733
				c1.064-0.554,2.182-1.403,3.353-2.55c1.17-1.146,2.243-2.533,3.218-4.161l0.663,0.628c-0.92,1.771-2.033,3.325-3.342,4.665
				c-1.308,1.34-2.674,2.355-4.095,3.049c-1.422,0.693-2.763,0.982-4.022,0.866c-0.954-0.088-1.666-0.369-2.138-0.842
				c-0.472-0.474-0.771-1.059-0.895-1.757c-0.125-0.699-0.154-1.406-0.088-2.122c0.021-0.238,0.053-0.492,0.096-0.764
				c0.042-0.271,0.092-0.523,0.147-0.759c-0.671,0.935-1.397,1.821-2.179,2.659c-0.781,0.838-1.581,1.511-2.4,2.02
				C294.058,270.536,293.221,270.751,292.369,270.672z"/>
		</g>
		<g>
			<path style="fill:#407BFF;" d="M335.606,267.698c-0.6,0-1.122-0.15-1.561-0.45c-0.44-0.301-0.661-0.79-0.661-1.472
				c0-0.721,0.401-1.352,1.201-1.892c0.801-0.541,1.642-0.812,2.522-0.812c0.561,0,1.022,0.131,1.382,0.391
				c0.36,0.261,0.541,0.711,0.541,1.352c0,0.641-0.352,1.282-1.052,1.922C337.277,267.377,336.486,267.698,335.606,267.698z
				 M340.291,249.38c0.801-2.082,1.661-4.295,2.583-6.637c0.92-2.343,1.861-4.625,2.822-6.848c0.961-2.222,1.912-4.243,2.854-6.066
				c0.94-1.821,1.852-3.273,2.732-4.355c0.881-1.081,1.701-1.621,2.463-1.621c0.399,0,0.751,0.16,1.051,0.48
				c0.301,0.321,0.45,0.721,0.45,1.201c0,0.562-0.32,1.632-0.961,3.213c-0.641,1.583-1.482,3.494-2.522,5.736
				c-1.042,2.243-2.202,4.625-3.483,7.147c-1.282,2.523-2.583,5.015-3.904,7.478c-1.321,2.461-2.582,4.724-3.783,6.787
				c-1.201,2.063-2.223,3.733-3.064,5.015c-0.12-0.039-0.221-0.079-0.301-0.12c-0.08-0.039-0.16-0.079-0.24-0.12
				c0.16-1.281,0.421-2.612,0.781-3.994c0.36-1.381,0.78-2.712,1.262-3.994C339.511,251.402,339.931,250.301,340.291,249.38z"/>
		</g>
		<g>
			<path style="fill:#407BFF;" d="M223.376,253.554c0.874-0.704,1.831-0.71,2.764-0.429c0.729,0.219,1.171,0.71,1.701,1.312
				c0.246,0.279,0.496,0.731,0.692,1.219c0.196-0.488,0.446-0.94,0.692-1.219c0.53-0.602,0.973-1.093,1.701-1.312
				c0.934-0.281,1.891-0.276,2.764,0.429c0.821,0.661,0.955,1.882,0.712,2.908c-0.243,1.026-0.919,2.069-1.58,2.828
				c-1.386,1.593-2.615,2.798-4.289,3.667c-2.075-1.188-2.903-2.075-4.289-3.667c-0.661-0.759-1.337-1.802-1.58-2.828
				C222.421,255.435,222.555,254.215,223.376,253.554z"/>
		</g>
		<g>
			<path style="fill:#407BFF;" d="M286.873,203.922c0.874-0.704,1.831-0.709,2.764-0.429c0.729,0.219,1.171,0.71,1.701,1.312
				c0.246,0.279,0.496,0.731,0.692,1.219c0.196-0.488,0.446-0.94,0.692-1.219c0.53-0.602,0.973-1.093,1.701-1.312
				c0.934-0.281,1.891-0.276,2.764,0.429c0.821,0.661,0.955,1.882,0.712,2.908c-0.243,1.026-0.919,2.069-1.58,2.828
				c-1.386,1.593-2.615,2.798-4.289,3.667c-2.075-1.188-2.903-2.075-4.289-3.667c-0.661-0.76-1.337-1.802-1.58-2.828
				C285.918,205.803,286.053,204.583,286.873,203.922z"/>
		</g>
	</g>
</g>
<g id="Plant">
	<g>
		<g>
			<path style="fill:#407BFF;" d="M404.714,400.604c-0.635-2.624-1.273-5.276-1.297-7.976c-0.024-2.7,0.622-5.491,2.312-7.596
				c1.359-1.693,3.306-2.847,4.623-4.573c2.209-2.895,2.444-7.117,5.182-9.518c1.827-1.603,4.389-2.033,6.495-3.246
				c2.135-1.23,3.72-3.213,5.656-4.736c1.936-1.523,4.594-2.593,6.845-1.589c2.827,1.261,3.479,5.088,2.724,8.09
				c-0.755,3.002-2.485,5.72-2.99,8.773c-0.35,2.117-0.176,4.527-1.617,6.118c-1.519,1.678-4.226,1.709-5.913,3.217
				c-1.793,1.602-1.904,4.301-2.567,6.612c-1.082,3.774-4.03,6.963-7.707,8.339c-3.677,1.376-7.994,0.904-11.288-1.233"/>
		</g>
		<g style="opacity:0.4;enable-background:new    ;">
			<path style="fill:#FFFFFF;" d="M404.714,400.604c-0.635-2.624-1.273-5.276-1.297-7.976c-0.024-2.7,0.622-5.491,2.312-7.596
				c1.359-1.693,3.306-2.847,4.623-4.573c2.209-2.895,2.444-7.117,5.182-9.518c1.827-1.603,4.389-2.033,6.495-3.246
				c2.135-1.23,3.72-3.213,5.656-4.736c1.936-1.523,4.594-2.593,6.845-1.589c2.827,1.261,3.479,5.088,2.724,8.09
				c-0.755,3.002-2.485,5.72-2.99,8.773c-0.35,2.117-0.176,4.527-1.617,6.118c-1.519,1.678-4.226,1.709-5.913,3.217
				c-1.793,1.602-1.904,4.301-2.567,6.612c-1.082,3.774-4.03,6.963-7.707,8.339c-3.677,1.376-7.994,0.904-11.288-1.233"/>
		</g>
		<g>
			<g>
				<path style="fill:#407BFF;" d="M405.584,363.568c-2.562-0.851-5.15-1.713-7.453-3.122c-2.303-1.409-4.329-3.435-5.22-5.984
					c-0.717-2.049-0.665-4.312-1.432-6.343c-1.286-3.407-4.744-5.841-5.331-9.435c-0.392-2.398,0.6-4.8,0.686-7.228
					c0.087-2.462-0.756-4.857-1.023-7.306c-0.267-2.449,0.233-5.27,2.276-6.647c2.567-1.73,6.158-0.258,8.305,1.972
					c2.147,2.23,3.537,5.136,5.86,7.181c1.611,1.418,3.747,2.546,4.334,4.611c0.619,2.177-0.788,4.49-0.402,6.72
					c0.41,2.369,2.641,3.893,4.25,5.679c2.629,2.916,3.773,7.105,2.993,10.953c-0.78,3.848-3.465,7.26-7.022,8.923"/>
			</g>
			<g style="opacity:0.2;enable-background:new    ;">
				<path d="M405.584,363.568c-2.562-0.851-5.15-1.713-7.453-3.122c-2.303-1.409-4.329-3.435-5.22-5.984
					c-0.717-2.049-0.665-4.312-1.432-6.343c-1.286-3.407-4.744-5.841-5.331-9.435c-0.392-2.398,0.6-4.8,0.686-7.228
					c0.087-2.462-0.756-4.857-1.023-7.306c-0.267-2.449,0.233-5.27,2.276-6.647c2.567-1.73,6.158-0.258,8.305,1.972
					c2.147,2.23,3.537,5.136,5.86,7.181c1.611,1.418,3.747,2.546,4.334,4.611c0.619,2.177-0.788,4.49-0.402,6.72
					c0.41,2.369,2.641,3.893,4.25,5.679c2.629,2.916,3.773,7.105,2.993,10.953c-0.78,3.848-3.465,7.26-7.022,8.923"/>
			</g>
		</g>
		<g>
			<g>
				<path style="fill:#407BFF;" d="M400.998,391.433c-1.585,1.321-3.188,2.655-5.032,3.582c-1.843,0.928-3.976,1.428-5.99,0.979
					c-1.62-0.361-3.069-1.306-4.697-1.626c-2.731-0.538-5.706,0.727-8.277-0.34c-1.716-0.712-2.876-2.324-4.418-3.358
					c-1.564-1.049-3.459-1.466-5.158-2.28c-1.698-0.813-3.329-2.275-3.4-4.157c-0.09-2.364,2.315-4.104,4.628-4.6
					c2.313-0.496,4.761-0.227,7.026-0.912c1.57-0.475,3.164-1.407,4.741-0.957c1.663,0.475,2.599,2.321,4.203,2.969
					c1.704,0.688,3.593-0.146,5.401-0.472c2.953-0.532,6.136,0.413,8.321,2.47c2.185,2.057,3.319,5.177,2.966,8.157"/>
			</g>
			<g style="opacity:0.2;enable-background:new    ;">
				<path d="M400.998,391.433c-1.585,1.321-3.188,2.655-5.032,3.582c-1.843,0.928-3.976,1.428-5.99,0.979
					c-1.62-0.361-3.069-1.306-4.697-1.626c-2.731-0.538-5.706,0.727-8.277-0.34c-1.716-0.712-2.876-2.324-4.418-3.358
					c-1.564-1.049-3.459-1.466-5.158-2.28c-1.698-0.813-3.329-2.275-3.4-4.157c-0.09-2.364,2.315-4.104,4.628-4.6
					c2.313-0.496,4.761-0.227,7.026-0.912c1.57-0.475,3.164-1.407,4.741-0.957c1.663,0.475,2.599,2.321,4.203,2.969
					c1.704,0.688,3.593-0.146,5.401-0.472c2.953-0.532,6.136,0.413,8.321,2.47c2.185,2.057,3.319,5.177,2.966,8.157"/>
			</g>
		</g>
		<g>
			<path style="fill:#407BFF;" d="M400.421,382.68c-2.724,0.43-5.477,0.862-8.228,0.665c-2.751-0.198-5.54-1.085-7.545-2.979
				c-1.612-1.524-2.627-3.601-4.276-5.084c-2.766-2.488-7.046-3.074-9.266-6.059c-1.481-1.992-1.708-4.637-2.77-6.881
				c-1.076-2.275-2.966-4.052-4.357-6.149c-1.392-2.097-2.262-4.892-1.055-7.1c1.517-2.774,5.467-3.124,8.462-2.109
				c2.995,1.015,5.62,3.001,8.688,3.766c2.127,0.531,4.595,0.552,6.096,2.15c1.583,1.685,1.392,4.444,2.789,6.286
				c1.484,1.957,4.223,2.293,6.522,3.158c3.754,1.413,6.759,4.676,7.857,8.534c1.098,3.858,0.263,8.215-2.184,11.392"/>
		</g>
		<g style="opacity:0.4;enable-background:new    ;">
			<path style="fill:#FFFFFF;" d="M400.421,382.68c-2.724,0.43-5.477,0.862-8.228,0.665c-2.751-0.198-5.54-1.085-7.545-2.979
				c-1.612-1.524-2.627-3.601-4.276-5.084c-2.766-2.488-7.046-3.074-9.266-6.059c-1.481-1.992-1.708-4.637-2.77-6.881
				c-1.076-2.275-2.966-4.052-4.357-6.149c-1.392-2.097-2.262-4.892-1.055-7.1c1.517-2.774,5.467-3.124,8.462-2.109
				c2.995,1.015,5.62,3.001,8.688,3.766c2.127,0.531,4.595,0.552,6.096,2.15c1.583,1.685,1.392,4.444,2.789,6.286
				c1.484,1.957,4.223,2.293,6.522,3.158c3.754,1.413,6.759,4.676,7.857,8.534c1.098,3.858,0.263,8.215-2.184,11.392"/>
		</g>
		<g>
			<path style="fill:#407BFF;" d="M403.626,367.236c-1.246-2.837-2.503-5.705-3.074-8.751c-0.571-3.046-0.405-6.33,1.081-9.05
				c1.195-2.187,3.161-3.884,4.302-6.1c1.912-3.717,1.326-8.535,3.936-11.8c1.742-2.179,4.55-3.182,6.685-4.977
				c2.165-1.82,3.556-4.38,5.436-6.492c1.881-2.112,4.669-3.856,7.414-3.175c3.448,0.855,4.957,5.047,4.71,8.591
				c-0.247,3.544-1.654,6.964-1.609,10.517c0.031,2.463,0.713,5.151-0.593,7.238c-1.378,2.202-4.43,2.783-6.033,4.827
				c-1.703,2.172-1.285,5.244-1.568,7.989c-0.462,4.482-3.15,8.68-7.027,10.976c-3.878,2.296-8.851,2.634-13.003,0.883"/>
		</g>
		<g style="opacity:0.4;enable-background:new    ;">
			<path style="fill:#FFFFFF;" d="M403.626,367.236c-1.246-2.837-2.503-5.705-3.074-8.751c-0.571-3.046-0.405-6.33,1.081-9.05
				c1.195-2.187,3.161-3.884,4.302-6.1c1.912-3.717,1.326-8.535,3.936-11.8c1.742-2.179,4.55-3.182,6.685-4.977
				c2.165-1.82,3.556-4.38,5.436-6.492c1.881-2.112,4.669-3.856,7.414-3.175c3.448,0.855,4.957,5.047,4.71,8.591
				c-0.247,3.544-1.654,6.964-1.609,10.517c0.031,2.463,0.713,5.151-0.593,7.238c-1.378,2.202-4.43,2.783-6.033,4.827
				c-1.703,2.172-1.285,5.244-1.568,7.989c-0.462,4.482-3.15,8.68-7.027,10.976c-3.878,2.296-8.851,2.634-13.003,0.883"/>
		</g>
		<g>
			<g>
				<path style="fill:#263238;" d="M400.205,408.885c9.199-14.135,19.83-27.319,30.753-40.146c0.311-0.366-0.217-0.898-0.53-0.53
					c-10.964,12.875-21.637,26.111-30.87,40.298C399.293,408.913,399.942,409.289,400.205,408.885L400.205,408.885z"/>
			</g>
		</g>
		<g>
			<g>
				<path style="fill:#263238;" d="M400.256,408.696c-0.882-10.833,1.35-21.924,4.145-32.337
					c3.132-11.67,7.405-23.124,12.936-33.875c2.631-5.114,5.566-10.127,9.126-14.657c0.295-0.375-0.232-0.91-0.53-0.53
					c-6.747,8.585-11.556,18.72-15.578,28.814c-4.537,11.384-8.114,23.296-9.955,35.428c-0.859,5.661-1.359,11.435-0.893,17.156
					C399.545,409.174,400.295,409.178,400.256,408.696L400.256,408.696z"/>
			</g>
		</g>
		<g>
			<g>
				<path style="fill:#263238;" d="M401.442,381.948c-2.81-5.693-8.146-9.323-13.225-12.825
					c-6.074-4.188-11.494-8.891-15.852-14.891c-0.281-0.387-0.932-0.013-0.648,0.378c4.104,5.651,9.139,10.307,14.857,14.286
					c5.364,3.734,11.23,7.373,14.22,13.431C401.008,382.76,401.655,382.38,401.442,381.948L401.442,381.948z"/>
			</g>
		</g>
		<path style="fill:#263238;" d="M424.554,407.31h-46.175c0,0-1.727,30.219,12.848,42.179l-5.265,6.271h31.85l-6.017-6.588
			C411.797,449.172,423.791,443.997,424.554,407.31z"/>
		<g style="opacity:0.3;enable-background:new    ;">
			<path style="fill:#FFFFFF;" d="M393.172,409.995l-12.048,0.108c0.618,6.511,1.243,13.064,3.01,19.361
				c1.766,6.297,4.757,12.392,9.494,16.901C390.577,434.711,391.784,421.961,393.172,409.995z"/>
		</g>
	</g>
</g>
<g id="Speech_Bubble">
	<g>
		<g>
			<g>
				<g>
					<path style="fill:#407BFF;" d="M165.008,94.997c10.862-8.38,26.461-6.369,34.841,4.493c8.381,10.862,6.369,26.461-4.493,34.841
						c-8.386,6.47-19.582,6.721-28.114,1.513l-7.141,2.16l0.681-7.853c-0.086-0.108-0.183-0.203-0.268-0.313
						C152.134,118.977,154.146,103.378,165.008,94.997z"/>
				</g>
				<path style="fill:none;stroke:#407BFF;stroke-width:0.5;stroke-linecap:round;stroke-linejoin:round;stroke-miterlimit:10;" d="
					M199.146,93.816c-5.628-5.792-14.29-8.457-22.2-6.83"/>
				<path style="fill:none;stroke:#407BFF;stroke-width:0.5;stroke-linecap:round;stroke-linejoin:round;stroke-miterlimit:10;" d="
					M173.344,87.86c-1.222,0.158-2.41,0.571-3.465,1.206"/>
				<g style="opacity:0.7;">
					<path style="fill:#FFFFFF;" d="M165.008,94.997c10.862-8.38,26.461-6.369,34.841,4.493c8.381,10.862,6.369,26.461-4.493,34.841
						c-8.386,6.47-19.582,6.721-28.114,1.513l-7.141,2.16l0.681-7.853c-0.086-0.108-0.183-0.203-0.268-0.313
						C152.134,118.977,154.146,103.378,165.008,94.997z"/>
				</g>
			</g>
		</g>
		<g>
			<path style="fill:#407BFF;" d="M167.914,106.569c1.963-1.582,4.112-1.594,6.21-0.963c1.637,0.492,2.631,1.595,3.822,2.948
				c0.552,0.627,1.114,1.642,1.554,2.739c0.44-1.097,1.002-2.112,1.554-2.739c1.191-1.353,2.185-2.456,3.822-2.948
				c2.098-0.631,4.247-0.62,6.21,0.963c1.844,1.486,2.145,4.227,1.599,6.532c-0.546,2.305-2.064,4.647-3.549,6.354
				c-3.114,3.578-5.875,6.285-9.636,8.239c-4.661-2.669-6.522-4.661-9.636-8.239c-1.485-1.706-3.003-4.048-3.549-6.354
				C165.769,110.796,166.07,108.055,167.914,106.569z"/>
		</g>
	</g>
</g>
<g id="Character">
	<g>
		<g>
			<path style="fill:#263238;" d="M116.367,129.889c-1.577-1.827-3.964-2.927-6.378-2.938c-2.413-0.011-4.811,1.067-6.404,2.88
				c-1.085,1.235-1.785,2.75-2.532,4.214c-1.793,3.511-3.94,6.841-6.397,9.924c-1.4,1.755-2.945,3.466-4.925,4.523
				c-2.99,1.595-6.551,1.503-9.939,1.612c-3.387,0.109-7.052,0.585-9.477,2.953c-0.49,0.479-0.928,1.051-1.066,1.722
				c-0.347,1.686,1.331,3.169,3.009,3.552c1.678,0.383,3.446,0.09,5.138,0.404c-1.347,0.716-2.644,1.657-3.37,2.999
				c-0.726,1.342-0.742,3.156,0.291,4.279c0.72,0.783,1.802,1.114,2.848,1.307c2.739,0.505,5.609,0.277,8.234-0.653
				c-1.518,1.617-3.154,3.642-2.634,5.799c0.57,2.364,3.396,3.37,5.825,3.484c5.551,0.26,10.922-2.045,15.639-4.984
				c6.552-4.082,12.563-9.965,14.171-17.516c0.739-3.47,0.515-7.144,1.723-10.48L116.367,129.889z"/>
		</g>
		<g style="enable-background:new    ;">
			<path style="fill:#407BFF;" d="M118.568,119.502c-0.691-1.502-2.801-1.741-4.35-1.162c-2.449,0.916-4.227,3.399-4.305,6.013
				c-0.078,2.614,1.549,5.199,3.94,6.259l0.144,1.159c-2.506-2.472-5.848-4.081-9.343-4.499c-1.945-0.233-4.007-0.082-5.703,0.897
				c-1.696,0.979-2.925,2.925-2.637,4.862c0.318,2.139,2.382,3.698,4.516,4.048c2.134,0.35,4.306-0.271,6.32-1.059
				s3.982-1.757,6.109-2.15c0.691-0.128,1.512-0.278,1.797-0.92c0.168-0.38,0.085-0.816,0.074-1.231
				c-0.039-1.501,0.89-2.825,1.617-4.139c1.004-1.815,1.676-3.812,1.975-5.864C118.828,120.973,118.881,120.183,118.568,119.502z"/>
		</g>
		<g>
			<path style="fill:#263238;" d="M138.663,126.485c5.877,4.174,7.423,9.974,7.225,14.135c-0.906,5.601-4.537,9.401-6.212,14.821
				l-12.392-33.212C130.747,123.02,132.335,122.351,138.663,126.485z"/>
			<path style="fill:#263238;" d="M131.272,123.362c-5.761-2.885-11.585,0.154-14.99,2.285c-3.745,2.996-6.031,7.451-6.28,12.241
				c-0.13,4.481-0.287,9.914,2.362,12.328c1.483,1.397,3.485,2.106,5.516,1.954l22.755-19.812
				C138.329,128.613,135.107,125.516,131.272,123.362z"/>
			<path style="fill:#FFA666;" d="M131.044,175.077c-1.432-1.146-4.645-5.382-4.292-7.733l1.659-7.869
				c0.001-0.09,0.002-0.17,0.002-0.251l-5.264-2.776c-0.001-0.001-0.002-0.003-0.004-0.004c-1.31-1.366-3.479-1.412-4.845-0.103
				c-0.512,0.465-0.893,0.269-1.044,0.945c-0.035,0.148,0.057,1.104,0.043,1.256c-0.201,5.258-1.096,8.57-4.054,10.856
				l11.756,13.238C131.496,178.28,131.898,175.837,131.044,175.077z"/>
			<path style="opacity:0.2;enable-background:new    ;" d="M126.867,166.896c0.025-0.222,0.108-0.67,0.165-0.885
				c0.357-1.801,0.794-3.856,1.396-6.801c-0.014-0.092-0.013-0.185,0.003-0.276l-5.522-2.972c-1.407-1.428-3.703-1.45-5.137-0.049
				c-0.516,0.506-0.378,1.143-0.532,1.849c2.245,4.213,5.234,7.644,9.484,9.817c0.004-0.234,0.102-0.425,0.138-0.657
				L126.867,166.896z"/>
			<path style="fill:#FFA666;" d="M113.282,139.296c-0.067,10.368-0.325,14.74,4.435,20.508c7.168,8.664,19.646,6.768,22.798-3.317
				c2.762-9.082,2.458-24.479-7.173-29.516C123.711,121.933,113.358,128.915,113.282,139.296z"/>
			<path style="fill:#FFA666;" d="M108.438,148.037c0.983,2.267,2.823,3.83,4.596,4.495c2.668,1.001,4.588-3.253,3.964-6.11
				c-0.562-2.572-3.074-4.519-5.808-4.283C108.496,142.372,107.314,145.445,108.438,148.037z"/>
			
				<path style="opacity:0.2;fill:none;stroke:#000000;stroke-width:0.5;stroke-linecap:round;stroke-linejoin:round;stroke-miterlimit:10;" d="
				M114.304,148.145c0.046-0.99-0.315-1.993-0.981-2.726c-0.666-0.734-1.63-1.189-2.619-1.238"/>
			<path style="fill:#263238;" d="M125.862,144.086c-0.074,1.104,0.418,2.072,1.099,2.164c0.681,0.092,1.292-0.728,1.366-1.832
				c0.074-1.103-0.418-2.072-1.099-2.164C126.548,142.163,125.937,142.983,125.862,144.086z"/>
			<path style="fill:#263238;" d="M135.954,145.252c-0.069,1.069,0.425,2.011,1.103,2.102c0.678,0.091,1.285-0.701,1.354-1.771
				c0.069-1.069-0.425-2.011-1.103-2.102C136.63,143.389,136.024,144.182,135.954,145.252z"/>
			<path style="fill:#263238;" d="M124.922,140.077c0.131,0.03,0.269,0.007,0.382-0.076c1.767-1.298,3.507-0.574,3.527-0.565
				c0.258,0.108,0.545-0.012,0.637-0.277c0.091-0.265-0.046-0.57-0.306-0.682c-0.091-0.038-2.275-0.95-4.467,0.662
				c-0.218,0.161-0.259,0.484-0.091,0.723C124.685,139.975,124.8,140.049,124.922,140.077z"/>
			<path style="fill:#263238;" d="M140.919,140.464c0.108-0.023,0.204-0.091,0.263-0.2c0.121-0.224,0.04-0.536-0.181-0.695
				c-2.22-1.603-4.092-0.789-4.172-0.753c-0.223,0.1-0.307,0.389-0.187,0.646c0.119,0.256,0.396,0.382,0.618,0.283
				c0.073-0.033,1.536-0.639,3.301,0.635C140.675,140.463,140.804,140.489,140.919,140.464z"/>
			<path style="fill:#E57C35;" d="M133.925,144.407c0,0,1.181,4.068,2.737,6.697c0.272,0.46,0.003,1.055-0.515,1.181
				c-1.335,0.326-2.785-0.271-2.785-0.271L133.925,144.407z"/>
			<path style="fill:#263238;" d="M126.703,142.289l2.445-0.292C129.148,141.997,127.644,143.624,126.703,142.289z"/>
			<path style="fill:#263238;" d="M137.046,143.477l2.445-0.292C139.491,143.186,137.987,144.813,137.046,143.477z"/>
			<path style="fill:#263238;" d="M132.839,154.888c-0.887,0.939-2.097,2.851-2.097,2.851c-0.193-0.078-0.386-0.157-0.575-0.245
				c-2.591-1.129-3.42-2.509-3.553-3.696c-0.071-0.65,0.076-1.246,0.255-1.706c0.202-0.534,0.468-0.869,0.468-0.869
				c1.016,1.419,3.351,2.658,4.625,3.267C132.492,154.75,132.839,154.888,132.839,154.888z"/>
			<path style="fill:#FFFFFF;" d="M131.961,154.489l-0.64,0.825c-2.438-1.069-4.011-2.149-4.453-3.223
				c0.202-0.534,0.468-0.869,0.468-0.869C128.352,152.641,130.686,153.88,131.961,154.489z"/>
			<path style="fill:#F54948;" d="M130.166,157.495c-2.591-1.129-3.42-2.509-3.553-3.696c0.868,0.419,1.868,1.02,2.629,1.824
				C129.826,156.234,130.073,156.894,130.166,157.495z"/>
			<path style="fill:#263238;" d="M116.797,141.925c0,0,6.116-6.592,6.466-12.372c0,0,21.315-4.086,18.833,14.136
				c0,0,5.035-15.675-12.194-18.756c-17.229-3.08-21.452,19.414-13.837,27.518C116.098,152.37,113.013,146.056,116.797,141.925z"/>
			<path style="fill:#263238;" d="M137.705,127.424c2.214,2.251,3.654,5.149,4.11,8.274c-0.065,2.254-3.181,3.795-3.181,3.795
				l-3.606-5.025l-0.125,4.319c-6.119-0.851-9.573-4.213-11.538-8.978l3.599-6.012C126.963,123.797,135.719,125.599,137.705,127.424
				z"/>
		</g>
		<g>
			<g>
				<path style="fill:#407BFF;" d="M144.463,175.97c0.071-0.072,0.355-0.093,0.788,0c1.301,0.28,3.952,1.594,6.227,5.675
					c3.033,5.438,8.47,25.575,9.829,23.439c1.359-2.136,4.755-12.507,4.755-12.507l7.096-1.053c0,0-0.118,25.258-5.87,30.415
					c-5.751,5.157-10.503,1.561-13.212-0.954c-2.394-2.221-13.334-25.973-13.349-25.997"/>
				<path style="opacity:0.4;fill:#FFFFFF;enable-background:new    ;" d="M144.463,175.97c0.071-0.072,0.355-0.093,0.788,0
					c1.301,0.28,3.952,1.594,6.227,5.675c3.033,5.438,8.47,25.575,9.829,23.439c1.359-2.136,4.755-12.507,4.755-12.507l7.096-1.053
					c0,0-0.118,25.258-5.87,30.415c-5.751,5.157-10.311,1.584-13.212-0.954c-2.448-2.141-13.335-25.974-13.349-25.997"/>
			</g>
			<path style="fill:#407BFF;" d="M141.429,192.856c-1.698,5.094-3.024,9.498-4.099,13.451c-2.886,9.9-4.749,20.07-5.558,30.35
				l-40.843-4.391c-1.074-29.183,0-45.273,0.889-53.285c0.995-8.529,2.321-8.821,2.321-8.821s9.285-0.716,17.351-0.491
				c6.238,0.328,12.444,1.104,18.571,2.321c5.81,1.08,11.534,2.583,17.125,4.497c-0.995,2.653-1.897,5.2-2.733,7.574
				C143.34,187.218,142.332,190.137,141.429,192.856z"/>
			<path style="opacity:0.4;fill:#FFFFFF;enable-background:new    ;" d="M141.429,192.856c-1.698,5.094-3.024,9.498-4.099,13.451
				c-2.886,9.9-4.749,20.07-5.558,30.35l-40.843-4.391c-1.074-29.183,0-45.273,0.889-53.285c0.995-8.529,2.321-8.821,2.321-8.821
				s9.285-0.716,17.351-0.491c6.238,0.328,12.444,1.104,18.571,2.321c5.81,1.08,11.534,2.583,17.125,4.497
				c-0.995,2.653-1.897,5.2-2.733,7.574C143.34,187.218,142.332,190.137,141.429,192.856z"/>
			<polygon style="opacity:0.2;enable-background:new    ;" points="98.184,226.464 114.053,218.254 124.063,216.455 
				134.051,219.868 135.647,213.193 118.833,209.257 90.48,219.829 91.448,226.014 			"/>
			<g>
				<path style="fill:#407BFF;" d="M160.477,162.437c-1.287,0.396-24.108,11.64-19.398,39.033l24.741-0.864
					c0,0-2.61-9.509,1.167-16.088c3.777-6.579,14.863-12.914,14.619-12.792C181.362,171.848,160.477,162.437,160.477,162.437z"/>
				<path style="opacity:0.7;fill:#FFFFFF;enable-background:new    ;" d="M160.477,162.437
					c-1.287,0.396-24.108,11.64-19.398,39.033l24.741-0.864c0,0-2.61-9.509,1.167-16.088c3.777-6.579,14.863-12.914,14.619-12.792
					C181.362,171.848,160.477,162.437,160.477,162.437z"/>
			</g>
			<g>
				<path style="fill:#407BFF;" d="M144.425,204.642l-6.785-9.62c0,0-17.421,2.016-17.651,2.54l-5.326,12.439
					c-0.233,0.55,0.025,1.185,0.575,1.418c0.021,0.009,0.043,0.017,0.064,0.025l22.158,7.506c0.528,0.174,1.103-0.081,1.327-0.59
					l5.556-12.488C144.467,205.473,144.495,205.052,144.425,204.642z"/>
				<path style="opacity:0.1;enable-background:new    ;" d="M144.475,205.084c-3.265,1.236-6.802,1.576-10.243,0.983
					c-5.72-1.278-14.242-8.539-14.242-8.539c0.229-0.525,17.651-2.54,17.651-2.54l6.785,9.62
					C144.425,204.609,144.458,204.838,144.475,205.084z"/>
				<path style="opacity:0.1;enable-background:new    ;" d="M121.137,197.857c7.368,3.578,15.237,6.015,23.338,7.227
					C144.475,205.084,131.265,200.692,121.137,197.857z"/>
			</g>
			<path style="fill:#407BFF;" d="M94.14,170.16c0,0-5.853,0.796-10.477,8.938c-5.7,10.036-19.082,30.167-9.956,43.409
				c9.126,13.242,38.766-7.262,38.766-7.262l-3.112-7.874c0,0-22.59,6.022-22.822,3.821c-0.503-4.775,6.429-17.103,6.429-17.103
				L94.14,170.16z"/>
			<g>
				<g>
					<g>
						<g>
							<g>
								<g>
									<g>
										<path style="fill:#FFA666;" d="M110.45,207.497c0,0,0.6-3.012,2.728-4.397c2.128-1.385,3.458-3.057,5.111-3.978
											c1.653-0.921,0.777,1.478,0.052,2.66c-0.724,1.182-1.533,2.529-0.558,2.929c0.976,0.401,9.968-0.785,11.257-0.076
											c1.29,0.709-0.105,1.356-0.105,1.356s2.192-0.229,2.519,0.615c0.085,0.219-0.073,0.866-1.055,1.127
											c-2.21,0.587-6.912,1.58-6.912,1.58c0.269-0.062,6.16-0.874,7.058-0.88c1.174-0.008,1.732,0.587,1.714,1.267
											c-0.025,0.969-7.295,2.224-7.564,2.491c0,0,4.161-0.862,4.972,0.09c0.81,0.952-1.779,1.638-4.178,1.809
											c-2.199,0.157-6.471,1.04-8.721,0.982c-2.773-0.071-4.619-0.742-5.634-3.137
											C110.119,209.541,110.45,207.497,110.45,207.497z"/>
									</g>
								</g>
							</g>
						</g>
					</g>
				</g>
			</g>
			<path style="opacity:0.4;fill:#FFFFFF;enable-background:new    ;" d="M94.14,170.16c0,0-5.853,0.796-10.477,8.938
				c-5.7,10.036-19.082,30.167-9.956,43.409c9.126,13.242,38.766-7.262,38.766-7.262l-3.112-7.874c0,0-22.59,6.022-22.822,3.821
				c-0.503-4.775,6.429-17.103,6.429-17.103L94.14,170.16z"/>
			<g style="opacity:0.2;enable-background:new    ;">
				<path d="M160.781,211.191c1.182,1.533,0.084-4.044,0.314-5.966c-0.533-0.135-0.922-1.005-1.322-1.813
					C159.772,203.411,157.947,207.515,160.781,211.191z"/>
			</g>
			<path style="opacity:0.2;enable-background:new    ;" d="M161.767,178.579c-0.13,0.183-4.152,5.478-3.121,8.032
				s6.359,5.012,6.359,5.012l0.66-3.909L161.767,178.579z"/>
			<path style="fill:#FFA666;" d="M172.386,191.559l-0.821-4.857c0,0,1.085-2.933,0.557-4.135c-0.997-2.39-7.332-5.338-8.285-5.866
				c-0.953-0.528-5.426,6.584-4.839,8.021c0.587,1.437,7.933,4.737,7.933,4.737v2.933L172.386,191.559z"/>
			<path style="opacity:0.2;enable-background:new    ;" d="M90.605,198.917l0.115-0.207l3.942-7.086
				c-0.215,6.738-1.186,12.924-4.183,17.633"/>
		</g>
		<path style="fill:#FFA666;" d="M102.273,432.341c-0.087,0.482,4.369,14.328,4.369,14.328h10.328l-1.075-15.243L102.273,432.341z"
			/>
		<path style="fill:#FFA666;" d="M155.142,430.187c-0.087,0.482,4.37,14.328,4.37,14.328h10.328l-3.669-20.887L155.142,430.187z"/>
		<path style="fill:#FFA666;" d="M100.361,169.748c4.442,7.123,11.839,11.883,20.163,12.973c13.782,1.579,18.571-8.755,18.571-8.755
			S120.524,167.321,100.361,169.748z"/>
		<g>
			<path style="fill:#263238;" d="M178.096,425.251c0.034,0.066,0.061,0.102,0.079,0.086
				C178.229,425.288,178.19,425.262,178.096,425.251z"/>
		</g>
		<g>
			<path style="fill:#263238;" d="M107.922,272.346c2.653,2.404,18.98,114.782,45.446,158.224c0,0,15.856-4.191,17.506-4.005
				c-1.881-3.684-25.596-116.577-29.179-163.575L107.922,272.346z"/>
			<path style="fill:#263238;" d="M90.811,225.607c0,0-13.446,12.95-13.778,39.317c-0.332,26.367,13.681,152.608,24.748,169.407
				c0,0,19.316-0.218,17.513,0c-1.803,0.218-11.295-109.215-3.896-150.335l26.298-21.007c-1.306-13.372-4.056-24.713-9.301-32.547
				L90.811,225.607z"/>
			<path style="opacity:0.2;enable-background:new    ;" d="M113.664,298.166l-0.6-24.712l5.77-5.28
				c-0.86,0.43,0.398,52.701-0.565,52.279L113.664,298.166z"/>
		</g>
		<g>
			<path style="fill:#263238;" d="M118.324,443.173l-3.626-0.104c-0.82-0.023-1.604,0.35-2.128,0.967
				c-2.261,2.662-3.768,1.588-5.882-1.036c-1.436-0.202-1.924,1.368-2.069,1.79l-3.299,9.319c-0.285,0.778,0.141,1.61,0.95,1.858
				c0.144,0.044,0.295,0.068,0.447,0.07c4.403,0.126,6.486,0.186,11.966,0.343l16.76,0.481c4.569,0.131,5.79-4.23,3.934-4.69
				c-8.351-2.025-14.195-4.571-16.664-6.992C118.254,444.754,118.772,444.461,118.324,443.173z"/>
			<path style="fill:#407BFF;" d="M126.025,446.071c0.398-0.251,0.652-0.663,0.686-1.111c0.047-0.239-0.053-0.479-0.258-0.618
				c-1.088-0.799-5.748,1.09-6.272,1.312c-0.058,0.018-0.105,0.059-0.129,0.112c-0.044,0.099,0.004,0.21,0.106,0.249
				c1.098,0.283,2.228,0.456,3.371,0.515C124.384,446.633,125.258,446.472,126.025,446.071z M126.148,444.661
				c0.089,0.057,0.13,0.162,0.102,0.263c-0.039,0.323-0.222,0.618-0.501,0.811c-1.076,0.704-3.542,0.316-4.864,0.041
				C122.817,445.041,125.548,444.226,126.148,444.661z"/>
			<path style="fill:#407BFF;" d="M120.31,446.065c1.395-0.503,4.381-2.553,4.298-3.685c-0.009-0.238-0.169-0.525-0.779-0.621
				c-2.469-0.342-3.8,3.88-3.812,4.061c-0.029,0.072-0.011,0.153,0.047,0.205c0.046,0.014,0.095,0.016,0.142,0.004L120.31,446.065z
				 M123.724,442.106c0.459,0.058,0.449,0.216,0.445,0.273c0.087,0.692-2.095,2.404-3.621,3.106c0.37-0.984,1.437-3.44,3.011-3.394
				L123.724,442.106z"/>
			<path style="fill:none;stroke:#407BFF;stroke-width:0.5;stroke-linecap:round;stroke-linejoin:round;stroke-miterlimit:10;" d="
				M120.674,445.912c-1.259,0.127-2.462,0.805-3.198,1.802"/>
			<path style="fill:none;stroke:#407BFF;stroke-width:0.5;stroke-linecap:round;stroke-linejoin:round;stroke-miterlimit:10;" d="
				M122.826,447.593c-1.259,0.127-2.462,0.804-3.198,1.802"/>
			<path style="fill:none;stroke:#407BFF;stroke-width:0.5;stroke-linecap:round;stroke-linejoin:round;stroke-miterlimit:10;" d="
				M125.545,449.033c-1.259,0.127-2.462,0.805-3.197,1.802"/>
		</g>
		<g>
			<path style="fill:#263238;" d="M170.628,437.227l-3.504,0.936c-0.793,0.212-1.437,0.794-1.764,1.535
				c-1.407,3.197-3.158,2.598-5.933,0.688c-1.434,0.217-1.453,1.861-1.471,2.306l-0.499,9.873c-0.05,0.827,0.595,1.502,1.441,1.509
				c0.15,0.001,0.301-0.019,0.448-0.061c4.256-1.137,6.269-1.675,11.566-3.09l16.199-4.328c4.416-1.18,4.341-5.708,2.43-5.619
				c-8.582,0.445-14.909-0.324-17.967-1.94C171.012,438.762,171.425,438.333,170.628,437.227z"/>
			<path style="fill:#407BFF;" d="M178.835,437.804c0.31-0.354,0.436-0.822,0.34-1.26c-0.023-0.243-0.188-0.444-0.424-0.518
				c-1.271-0.455-5.197,2.687-5.635,3.049c-0.05,0.034-0.084,0.086-0.091,0.144c-0.014,0.107,0.063,0.2,0.173,0.208
				c1.133-0.042,2.266-0.2,3.378-0.47C177.423,438.811,178.215,438.407,178.835,437.804z M178.551,436.418
				c0.102,0.029,0.171,0.118,0.173,0.223c0.055,0.32-0.036,0.656-0.249,0.92c-0.83,0.982-3.303,1.315-4.65,1.429
				C175.467,437.733,177.851,436.173,178.551,436.418z"/>
			<path style="fill:#407BFF;" d="M173.357,439.431c1.194-0.88,3.469-3.698,3.066-4.76c-0.076-0.225-0.312-0.455-0.924-0.373
				c-2.464,0.378-2.533,4.804-2.493,4.98c-0.007,0.078,0.033,0.149,0.103,0.183c0.048,0.001,0.095-0.012,0.137-0.037
				L173.357,439.431z M175.497,434.661c0.456-0.075,0.492,0.079,0.505,0.134c0.281,0.638-1.321,2.902-2.583,4.011
				c0.073-1.048,0.394-3.707,1.916-4.113L175.497,434.661z"/>
			<path style="fill:none;stroke:#407BFF;stroke-width:0.5;stroke-linecap:round;stroke-linejoin:round;stroke-miterlimit:10;" d="
				M173.662,439.18c-1.17,0.481-2.13,1.475-2.549,2.64"/>
			<path style="fill:none;stroke:#407BFF;stroke-width:0.5;stroke-linecap:round;stroke-linejoin:round;stroke-miterlimit:10;" d="
				M176.205,440.177c-1.171,0.481-2.13,1.474-2.549,2.64"/>
			<path style="fill:none;stroke:#407BFF;stroke-width:0.5;stroke-linecap:round;stroke-linejoin:round;stroke-miterlimit:10;" d="
				M179.222,440.78c-1.17,0.481-2.129,1.475-2.549,2.64"/>
		</g>
	</g>
</g>
</svg>
